<mxfile modified="2020-07-29T09:52:29.056Z" host="app.diagrams.net" agent="5.0 (Windows NT 10.0; Win64; x64) AppleWebKit/537.36 (KHTML, like Gecko) Chrome/84.0.4147.105 Safari/537.36" etag="qxmcval84sBUZzhhxpRC" version="13.5.4" type="github" pages="5">
  <diagram id="Ht1M8jgEwFfnCIfOTk4-" name="Page-1">
    <mxGraphModel dx="1038" dy="618" grid="1" gridSize="10" guides="1" tooltips="1" connect="1" arrows="1" fold="1" page="1" pageScale="1" pageWidth="1169" pageHeight="827" math="0" shadow="0">
      <root>
        <mxCell id="0" />
        <mxCell id="1" parent="0" />
        <mxCell id="-QjtrjUzRDEMRZ5MF8oH-14" value="Amazon SageMaker" style="whiteSpace=wrap;html=1;fillColor=none;fontSize=14;fontColor=#000000;dashed=0;fontStyle=0;align=center;verticalAlign=top;strokeColor=#D86613;gradientColor=none;spacingLeft=0;labelPosition=center;verticalLabelPosition=bottom;" parent="1" vertex="1">
          <mxGeometry x="872.5" y="174.5" width="232" height="160" as="geometry" />
        </mxCell>
        <mxCell id="SCVMTBWpLvtzJIhz15lM-34" value="" style="whiteSpace=wrap;html=1;fillColor=none;fontSize=14;fontColor=#000000;dashed=0;fontStyle=0;align=center;verticalAlign=top;strokeColor=#CCCCCC;gradientColor=none;spacingLeft=0;labelPosition=center;verticalLabelPosition=bottom;" parent="1" vertex="1">
          <mxGeometry x="882.5" y="257.5" width="210" height="70" as="geometry" />
        </mxCell>
        <mxCell id="-QjtrjUzRDEMRZ5MF8oH-1" value="" style="outlineConnect=0;fontColor=#232F3E;gradientColor=none;fillColor=#277116;strokeColor=none;dashed=0;verticalLabelPosition=bottom;verticalAlign=top;align=center;html=1;fontSize=12;fontStyle=0;aspect=fixed;pointerEvents=1;shape=mxgraph.aws4.door_lock;" parent="1" vertex="1">
          <mxGeometry x="64.5" y="260.5" width="78" height="78" as="geometry" />
        </mxCell>
        <mxCell id="-QjtrjUzRDEMRZ5MF8oH-2" value="" style="outlineConnect=0;fontColor=#232F3E;gradientColor=none;fillColor=#277116;strokeColor=none;dashed=0;verticalLabelPosition=bottom;verticalAlign=top;align=center;html=1;fontSize=12;fontStyle=0;aspect=fixed;pointerEvents=1;shape=mxgraph.aws4.car;" parent="1" vertex="1">
          <mxGeometry x="64.5" y="356" width="78" height="78" as="geometry" />
        </mxCell>
        <mxCell id="-QjtrjUzRDEMRZ5MF8oH-3" value="" style="outlineConnect=0;fontColor=#232F3E;gradientColor=none;fillColor=#277116;strokeColor=none;dashed=0;verticalLabelPosition=bottom;verticalAlign=top;align=center;html=1;fontSize=12;fontStyle=0;aspect=fixed;pointerEvents=1;shape=mxgraph.aws4.camera;" parent="1" vertex="1">
          <mxGeometry x="64.5" y="451.5" width="78" height="78" as="geometry" />
        </mxCell>
        <mxCell id="-QjtrjUzRDEMRZ5MF8oH-4" value="" style="outlineConnect=0;fontColor=#232F3E;gradientColor=none;fillColor=#277116;strokeColor=none;dashed=0;verticalLabelPosition=bottom;verticalAlign=top;align=center;html=1;fontSize=12;fontStyle=0;aspect=fixed;pointerEvents=1;shape=mxgraph.aws4.utility;" parent="1" vertex="1">
          <mxGeometry x="165.5" y="306.5" width="78" height="78" as="geometry" />
        </mxCell>
        <mxCell id="-QjtrjUzRDEMRZ5MF8oH-5" value="" style="outlineConnect=0;fontColor=#232F3E;gradientColor=none;fillColor=#277116;strokeColor=none;dashed=0;verticalLabelPosition=bottom;verticalAlign=top;align=center;html=1;fontSize=12;fontStyle=0;aspect=fixed;pointerEvents=1;shape=mxgraph.aws4.coffee_pot;" parent="1" vertex="1">
          <mxGeometry x="166.5" y="410.5" width="78" height="78" as="geometry" />
        </mxCell>
        <mxCell id="-QjtrjUzRDEMRZ5MF8oH-6" value="" style="outlineConnect=0;fontColor=#232F3E;gradientColor=none;fillColor=#277116;strokeColor=none;dashed=0;verticalLabelPosition=bottom;verticalAlign=top;align=center;html=1;fontSize=12;fontStyle=0;aspect=fixed;pointerEvents=1;shape=mxgraph.aws4.lightbulb;" parent="1" vertex="1">
          <mxGeometry x="263.5" y="260.5" width="78" height="78" as="geometry" />
        </mxCell>
        <mxCell id="-QjtrjUzRDEMRZ5MF8oH-7" value="" style="outlineConnect=0;fontColor=#232F3E;gradientColor=none;fillColor=#277116;strokeColor=none;dashed=0;verticalLabelPosition=bottom;verticalAlign=top;align=center;html=1;fontSize=12;fontStyle=0;aspect=fixed;pointerEvents=1;shape=mxgraph.aws4.house;" parent="1" vertex="1">
          <mxGeometry x="261.5" y="356" width="78" height="78" as="geometry" />
        </mxCell>
        <mxCell id="-QjtrjUzRDEMRZ5MF8oH-8" value="" style="outlineConnect=0;fontColor=#232F3E;gradientColor=none;fillColor=#277116;strokeColor=none;dashed=0;verticalLabelPosition=bottom;verticalAlign=top;align=center;html=1;fontSize=12;fontStyle=0;aspect=fixed;pointerEvents=1;shape=mxgraph.aws4.thermostat;" parent="1" vertex="1">
          <mxGeometry x="261.5" y="451.5" width="78" height="78" as="geometry" />
        </mxCell>
        <mxCell id="-QjtrjUzRDEMRZ5MF8oH-9" value="1" style="rounded=1;whiteSpace=wrap;html=1;fillColor=#007CBD;strokeColor=none;fontColor=#FFFFFF;fontStyle=1;fontSize=22;" parent="1" vertex="1">
          <mxGeometry x="223.5" y="211.5" width="40" height="38" as="geometry" />
        </mxCell>
        <mxCell id="-QjtrjUzRDEMRZ5MF8oH-10" value="ML Model Executable" style="outlineConnect=0;fontColor=#232F3E;gradientColor=none;fillColor=#116D5B;strokeColor=none;dashed=0;verticalLabelPosition=bottom;verticalAlign=top;align=center;html=1;fontSize=12;fontStyle=0;aspect=fixed;pointerEvents=1;shape=mxgraph.aws4.sagemaker_model;" parent="1" vertex="1">
          <mxGeometry x="473.5" y="244.5" width="78" height="78" as="geometry" />
        </mxCell>
        <mxCell id="-QjtrjUzRDEMRZ5MF8oH-11" value="AWS Lambda Function" style="outlineConnect=0;fontColor=#232F3E;gradientColor=none;fillColor=#277116;strokeColor=none;dashed=0;verticalLabelPosition=bottom;verticalAlign=top;align=center;html=1;fontSize=12;fontStyle=0;aspect=fixed;pointerEvents=1;shape=mxgraph.aws4.lambda_function;" parent="1" vertex="1">
          <mxGeometry x="473.5" y="349.5" width="78" height="78" as="geometry" />
        </mxCell>
        <mxCell id="-QjtrjUzRDEMRZ5MF8oH-12" value="AWS IoT Greengrass Core" style="outlineConnect=0;fontColor=#232F3E;gradientColor=#60A337;gradientDirection=north;fillColor=#277116;strokeColor=#ffffff;dashed=0;verticalLabelPosition=bottom;verticalAlign=top;align=center;html=1;fontSize=12;fontStyle=0;aspect=fixed;shape=mxgraph.aws4.resourceIcon;resIcon=mxgraph.aws4.greengrass;" parent="1" vertex="1">
          <mxGeometry x="473.5" y="457.5" width="78" height="78" as="geometry" />
        </mxCell>
        <mxCell id="-QjtrjUzRDEMRZ5MF8oH-16" value="AWS IoT Core" style="outlineConnect=0;fontColor=#232F3E;gradientColor=#60A337;gradientDirection=north;fillColor=#277116;strokeColor=#ffffff;dashed=0;verticalLabelPosition=bottom;verticalAlign=top;align=center;html=1;fontSize=12;fontStyle=0;aspect=fixed;shape=mxgraph.aws4.resourceIcon;resIcon=mxgraph.aws4.internet_of_things;" parent="1" vertex="1">
          <mxGeometry x="745.5" y="451.5" width="78" height="78" as="geometry" />
        </mxCell>
        <mxCell id="-QjtrjUzRDEMRZ5MF8oH-17" value="AWS IoT Analytics" style="outlineConnect=0;fontColor=#232F3E;gradientColor=#60A337;gradientDirection=north;fillColor=#277116;strokeColor=#ffffff;dashed=0;verticalLabelPosition=bottom;verticalAlign=top;align=center;html=1;fontSize=12;fontStyle=0;aspect=fixed;shape=mxgraph.aws4.resourceIcon;resIcon=mxgraph.aws4.iot_analytics;" parent="1" vertex="1">
          <mxGeometry x="949.5" y="451.5" width="78" height="78" as="geometry" />
        </mxCell>
        <mxCell id="-QjtrjUzRDEMRZ5MF8oH-18" value="ML Model Executable" style="outlineConnect=0;fontColor=#232F3E;gradientColor=none;fillColor=#116D5B;strokeColor=none;dashed=0;verticalLabelPosition=bottom;verticalAlign=top;align=center;html=1;fontSize=12;fontStyle=0;aspect=fixed;pointerEvents=1;shape=mxgraph.aws4.sagemaker_model;" parent="1" vertex="1">
          <mxGeometry x="136.5" y="691.5" width="78" height="78" as="geometry" />
        </mxCell>
        <mxCell id="-QjtrjUzRDEMRZ5MF8oH-19" value="AWS IoT Greengrass Core" style="outlineConnect=0;fontColor=#232F3E;gradientColor=#60A337;gradientDirection=north;fillColor=#277116;strokeColor=#ffffff;dashed=0;verticalLabelPosition=bottom;verticalAlign=top;align=center;html=1;fontSize=12;fontStyle=0;aspect=fixed;shape=mxgraph.aws4.resourceIcon;resIcon=mxgraph.aws4.iot_core;" parent="1" vertex="1">
          <mxGeometry x="137.5" y="796" width="78" height="78" as="geometry" />
        </mxCell>
        <mxCell id="-QjtrjUzRDEMRZ5MF8oH-20" value="Video Camera" style="outlineConnect=0;fontColor=#232F3E;gradientColor=none;fillColor=#277116;strokeColor=none;dashed=0;verticalLabelPosition=bottom;verticalAlign=top;align=center;html=1;fontSize=12;fontStyle=0;aspect=fixed;pointerEvents=1;shape=mxgraph.aws4.camera;" parent="1" vertex="1">
          <mxGeometry x="137.5" y="903.5" width="78" height="78" as="geometry" />
        </mxCell>
        <mxCell id="-QjtrjUzRDEMRZ5MF8oH-21" value="AWS IoT Core" style="outlineConnect=0;fontColor=#232F3E;gradientColor=#60A337;gradientDirection=north;fillColor=#277116;strokeColor=#ffffff;dashed=0;verticalLabelPosition=bottom;verticalAlign=top;align=center;html=1;fontSize=12;fontStyle=0;aspect=fixed;shape=mxgraph.aws4.resourceIcon;resIcon=mxgraph.aws4.internet_of_things;" parent="1" vertex="1">
          <mxGeometry x="352.5" y="711.5" width="78" height="78" as="geometry" />
        </mxCell>
        <mxCell id="-QjtrjUzRDEMRZ5MF8oH-22" value="AWS IoT Analytics" style="outlineConnect=0;fontColor=#232F3E;gradientColor=#60A337;gradientDirection=north;fillColor=#277116;strokeColor=#ffffff;dashed=0;verticalLabelPosition=bottom;verticalAlign=top;align=center;html=1;fontSize=12;fontStyle=0;aspect=fixed;shape=mxgraph.aws4.resourceIcon;resIcon=mxgraph.aws4.iot_analytics;" parent="1" vertex="1">
          <mxGeometry x="532.5" y="708.5" width="78" height="78" as="geometry" />
        </mxCell>
        <mxCell id="-QjtrjUzRDEMRZ5MF8oH-23" value="AWS IoT Events" style="outlineConnect=0;fontColor=#232F3E;gradientColor=#60A337;gradientDirection=north;fillColor=#277116;strokeColor=#ffffff;dashed=0;verticalLabelPosition=bottom;verticalAlign=top;align=center;html=1;fontSize=12;fontStyle=0;aspect=fixed;shape=mxgraph.aws4.resourceIcon;resIcon=mxgraph.aws4.iot_events;" parent="1" vertex="1">
          <mxGeometry x="721.5" y="708.5" width="78" height="78" as="geometry" />
        </mxCell>
        <mxCell id="-QjtrjUzRDEMRZ5MF8oH-24" value="Amazon SNS" style="outlineConnect=0;fontColor=#232F3E;gradientColor=#F34482;gradientDirection=north;fillColor=#BC1356;strokeColor=#ffffff;dashed=0;verticalLabelPosition=bottom;verticalAlign=top;align=center;html=1;fontSize=12;fontStyle=0;aspect=fixed;shape=mxgraph.aws4.resourceIcon;resIcon=mxgraph.aws4.sns;" parent="1" vertex="1">
          <mxGeometry x="902.5" y="708.5" width="78" height="78" as="geometry" />
        </mxCell>
        <mxCell id="-QjtrjUzRDEMRZ5MF8oH-25" value="Amazon Kinesis&lt;br&gt;Video Streams&lt;br&gt;" style="outlineConnect=0;fontColor=#232F3E;gradientColor=#945DF2;gradientDirection=north;fillColor=#5A30B5;strokeColor=#ffffff;dashed=0;verticalLabelPosition=bottom;verticalAlign=top;align=center;html=1;fontSize=12;fontStyle=0;aspect=fixed;shape=mxgraph.aws4.resourceIcon;resIcon=mxgraph.aws4.kinesis_video_streams;" parent="1" vertex="1">
          <mxGeometry x="484.5" y="874.5" width="78" height="78" as="geometry" />
        </mxCell>
        <mxCell id="-QjtrjUzRDEMRZ5MF8oH-26" value="Mobile Application" style="outlineConnect=0;fontColor=#232F3E;gradientColor=#F54749;gradientDirection=north;fillColor=#C7131F;strokeColor=#ffffff;dashed=0;verticalLabelPosition=bottom;verticalAlign=top;align=center;html=1;fontSize=12;fontStyle=0;aspect=fixed;shape=mxgraph.aws4.resourceIcon;resIcon=mxgraph.aws4.mobile;" parent="1" vertex="1">
          <mxGeometry x="785.5" y="873.5" width="78" height="78" as="geometry" />
        </mxCell>
        <mxCell id="-QjtrjUzRDEMRZ5MF8oH-27" value="2" style="rounded=1;whiteSpace=wrap;html=1;fillColor=#007CBD;strokeColor=none;fontColor=#FFFFFF;fontStyle=1;fontSize=22;" parent="1" vertex="1">
          <mxGeometry x="483.5" y="164.5" width="40" height="38" as="geometry" />
        </mxCell>
        <mxCell id="-QjtrjUzRDEMRZ5MF8oH-28" value="3" style="rounded=1;whiteSpace=wrap;html=1;fillColor=#007CBD;strokeColor=none;fontColor=#FFFFFF;fontStyle=1;fontSize=22;" parent="1" vertex="1">
          <mxGeometry x="823.5" y="175.5" width="40" height="38" as="geometry" />
        </mxCell>
        <mxCell id="-QjtrjUzRDEMRZ5MF8oH-29" value="4" style="rounded=1;whiteSpace=wrap;html=1;fillColor=#007CBD;strokeColor=none;fontColor=#FFFFFF;fontStyle=1;fontSize=22;" parent="1" vertex="1">
          <mxGeometry x="633.5" y="399.5" width="40" height="38" as="geometry" />
        </mxCell>
        <mxCell id="-QjtrjUzRDEMRZ5MF8oH-30" value="5" style="rounded=1;whiteSpace=wrap;html=1;fillColor=#007CBD;strokeColor=none;fontColor=#FFFFFF;fontStyle=1;fontSize=22;" parent="1" vertex="1">
          <mxGeometry x="878.5" y="399.5" width="40" height="38" as="geometry" />
        </mxCell>
        <mxCell id="-QjtrjUzRDEMRZ5MF8oH-31" value="6" style="rounded=1;whiteSpace=wrap;html=1;fillColor=#007CBD;strokeColor=none;fontColor=#FFFFFF;fontStyle=1;fontSize=22;" parent="1" vertex="1">
          <mxGeometry x="136.5" y="608.5" width="40" height="38" as="geometry" />
        </mxCell>
        <mxCell id="-QjtrjUzRDEMRZ5MF8oH-32" value="7" style="rounded=1;whiteSpace=wrap;html=1;fillColor=#007CBD;strokeColor=none;fontColor=#FFFFFF;fontStyle=1;fontSize=22;" parent="1" vertex="1">
          <mxGeometry x="462.5" y="666.5" width="40" height="38" as="geometry" />
        </mxCell>
        <mxCell id="-QjtrjUzRDEMRZ5MF8oH-33" value="8" style="rounded=1;whiteSpace=wrap;html=1;fillColor=#007CBD;strokeColor=none;fontColor=#FFFFFF;fontStyle=1;fontSize=22;" parent="1" vertex="1">
          <mxGeometry x="832.5" y="666.5" width="40" height="38" as="geometry" />
        </mxCell>
        <mxCell id="-QjtrjUzRDEMRZ5MF8oH-34" value="9" style="rounded=1;whiteSpace=wrap;html=1;fillColor=#007CBD;strokeColor=none;fontColor=#FFFFFF;fontStyle=1;fontSize=22;" parent="1" vertex="1">
          <mxGeometry x="352.5" y="854.5" width="40" height="38" as="geometry" />
        </mxCell>
        <mxCell id="-QjtrjUzRDEMRZ5MF8oH-35" value="10" style="rounded=1;whiteSpace=wrap;html=1;fillColor=#007CBD;strokeColor=none;fontColor=#FFFFFF;fontStyle=1;fontSize=22;" parent="1" vertex="1">
          <mxGeometry x="652.5" y="854.5" width="40" height="38" as="geometry" />
        </mxCell>
        <mxCell id="-QjtrjUzRDEMRZ5MF8oH-47" value="Title text" style="text;html=1;resizable=0;points=[];autosize=1;align=left;verticalAlign=top;spacingTop=-4;fontSize=30;fontStyle=1" parent="1" vertex="1">
          <mxGeometry x="56.5" y="64.5" width="130" height="40" as="geometry" />
        </mxCell>
        <mxCell id="-QjtrjUzRDEMRZ5MF8oH-48" value="Subtitle text&lt;br style=&quot;font-size: 16px&quot;&gt;" style="text;html=1;resizable=0;points=[];autosize=1;align=left;verticalAlign=top;spacingTop=-4;fontSize=16;" parent="1" vertex="1">
          <mxGeometry x="56.5" y="114.5" width="100" height="20" as="geometry" />
        </mxCell>
        <mxCell id="-QjtrjUzRDEMRZ5MF8oH-49" value="Label" style="text;html=1;resizable=0;points=[];autosize=1;align=left;verticalAlign=top;spacingTop=-4;fontSize=16;fontStyle=1" parent="1" vertex="1">
          <mxGeometry x="84.5" y="164.5" width="50" height="20" as="geometry" />
        </mxCell>
        <mxCell id="SCVMTBWpLvtzJIhz15lM-1" value="" style="line;strokeWidth=2;html=1;fontSize=14;" parent="1" vertex="1">
          <mxGeometry x="52.5" y="139.5" width="1060" height="10" as="geometry" />
        </mxCell>
        <mxCell id="SCVMTBWpLvtzJIhz15lM-2" value="&lt;span&gt;Label&lt;/span&gt;" style="text;html=1;resizable=0;points=[];autosize=1;align=left;verticalAlign=top;spacingTop=-4;fontSize=14;fontStyle=1" parent="1" vertex="1">
          <mxGeometry x="442.5" y="216.5" width="50" height="20" as="geometry" />
        </mxCell>
        <mxCell id="SCVMTBWpLvtzJIhz15lM-3" value="" style="edgeStyle=orthogonalEdgeStyle;html=1;endArrow=open;elbow=vertical;startArrow=none;endFill=0;strokeColor=#545B64;rounded=0;fontSize=14;" parent="1" edge="1">
          <mxGeometry width="100" relative="1" as="geometry">
            <mxPoint x="354.5" y="394.5" as="sourcePoint" />
            <mxPoint x="404.5" y="394.5" as="targetPoint" />
          </mxGeometry>
        </mxCell>
        <mxCell id="SCVMTBWpLvtzJIhz15lM-5" value="" style="shape=curlyBracket;whiteSpace=wrap;html=1;rounded=1;fontSize=14;" parent="1" vertex="1">
          <mxGeometry x="415.5" y="248.5" width="20" height="290" as="geometry" />
        </mxCell>
        <mxCell id="SCVMTBWpLvtzJIhz15lM-17" value="&lt;span&gt;Label&lt;/span&gt;" style="edgeStyle=orthogonalEdgeStyle;html=1;endArrow=open;elbow=vertical;startArrow=none;endFill=0;strokeColor=#545B64;rounded=0;fontSize=14;strokeWidth=2;" parent="1" edge="1">
          <mxGeometry x="-0.037" y="20" width="100" relative="1" as="geometry">
            <mxPoint x="584.5" y="254.5" as="sourcePoint" />
            <mxPoint x="854.5" y="254.5" as="targetPoint" />
            <mxPoint as="offset" />
          </mxGeometry>
        </mxCell>
        <mxCell id="SCVMTBWpLvtzJIhz15lM-18" value="&lt;span&gt;Label&lt;/span&gt;" style="edgeStyle=orthogonalEdgeStyle;html=1;endArrow=none;elbow=vertical;startArrow=open;endFill=0;strokeColor=#545B64;rounded=0;fontSize=14;strokeWidth=2;startFill=0;" parent="1" edge="1">
          <mxGeometry x="-0.037" y="20" width="100" relative="1" as="geometry">
            <mxPoint x="582.5" y="318" as="sourcePoint" />
            <mxPoint x="852.5" y="318" as="targetPoint" />
            <mxPoint as="offset" />
          </mxGeometry>
        </mxCell>
        <mxCell id="SCVMTBWpLvtzJIhz15lM-19" value="&lt;span&gt;Label&lt;/span&gt;" style="edgeStyle=orthogonalEdgeStyle;html=1;endArrow=open;elbow=vertical;startArrow=none;endFill=0;strokeColor=#545B64;rounded=0;fontSize=14;strokeWidth=2;" parent="1" edge="1">
          <mxGeometry x="-0.037" y="20" width="100" relative="1" as="geometry">
            <mxPoint x="594.5000000000002" y="484.5" as="sourcePoint" />
            <mxPoint x="714.5" y="484.5" as="targetPoint" />
            <mxPoint as="offset" />
          </mxGeometry>
        </mxCell>
        <mxCell id="SCVMTBWpLvtzJIhz15lM-20" value="&lt;span&gt;Label&lt;/span&gt;" style="edgeStyle=orthogonalEdgeStyle;html=1;endArrow=open;elbow=vertical;startArrow=none;endFill=0;strokeColor=#545B64;rounded=0;fontSize=14;strokeWidth=2;" parent="1" edge="1">
          <mxGeometry x="-0.037" y="20" width="100" relative="1" as="geometry">
            <mxPoint x="838.5000000000002" y="487.5" as="sourcePoint" />
            <mxPoint x="924.5" y="487.5" as="targetPoint" />
            <mxPoint as="offset" />
          </mxGeometry>
        </mxCell>
        <mxCell id="SCVMTBWpLvtzJIhz15lM-21" value="Label" style="text;html=1;resizable=0;points=[];autosize=1;align=left;verticalAlign=top;spacingTop=-4;fontSize=16;fontStyle=1" parent="1" vertex="1">
          <mxGeometry x="66.5" y="576.5" width="50" height="20" as="geometry" />
        </mxCell>
        <mxCell id="SCVMTBWpLvtzJIhz15lM-22" value="&lt;span&gt;Label&lt;/span&gt;" style="text;html=1;resizable=0;points=[];autosize=1;align=left;verticalAlign=top;spacingTop=-4;fontSize=14;fontStyle=1" parent="1" vertex="1">
          <mxGeometry x="136.5" y="656.5" width="50" height="20" as="geometry" />
        </mxCell>
        <mxCell id="SCVMTBWpLvtzJIhz15lM-23" value="" style="shape=curlyBracket;whiteSpace=wrap;html=1;rounded=1;fontSize=14;" parent="1" vertex="1">
          <mxGeometry x="76.5" y="691.5" width="20" height="290" as="geometry" />
        </mxCell>
        <mxCell id="SCVMTBWpLvtzJIhz15lM-24" value="Video Events" style="edgeStyle=orthogonalEdgeStyle;html=1;endArrow=open;elbow=vertical;startArrow=none;endFill=0;strokeColor=#545B64;rounded=0;fontSize=14;strokeWidth=2;" parent="1" edge="1">
          <mxGeometry x="-0.037" y="20" width="100" relative="1" as="geometry">
            <mxPoint x="261.5" y="753.5" as="sourcePoint" />
            <mxPoint x="342.5" y="753.5" as="targetPoint" />
            <mxPoint as="offset" />
          </mxGeometry>
        </mxCell>
        <mxCell id="SCVMTBWpLvtzJIhz15lM-25" value="" style="edgeStyle=orthogonalEdgeStyle;html=1;endArrow=open;elbow=vertical;startArrow=none;endFill=0;strokeColor=#545B64;rounded=0;fontSize=14;strokeWidth=2;" parent="1" edge="1">
          <mxGeometry x="-0.037" y="20" width="100" relative="1" as="geometry">
            <mxPoint x="443" y="750" as="sourcePoint" />
            <mxPoint x="524" y="750" as="targetPoint" />
            <mxPoint as="offset" />
          </mxGeometry>
        </mxCell>
        <mxCell id="SCVMTBWpLvtzJIhz15lM-26" value="" style="edgeStyle=orthogonalEdgeStyle;html=1;endArrow=open;elbow=vertical;startArrow=none;endFill=0;strokeColor=#545B64;rounded=0;fontSize=14;strokeWidth=2;" parent="1" edge="1">
          <mxGeometry x="-0.037" y="20" width="100" relative="1" as="geometry">
            <mxPoint x="622.5" y="750" as="sourcePoint" />
            <mxPoint x="703.5" y="750" as="targetPoint" />
            <mxPoint as="offset" />
          </mxGeometry>
        </mxCell>
        <mxCell id="SCVMTBWpLvtzJIhz15lM-27" value="" style="edgeStyle=orthogonalEdgeStyle;html=1;endArrow=open;elbow=vertical;startArrow=none;endFill=0;strokeColor=#545B64;rounded=0;fontSize=14;strokeWidth=2;" parent="1" edge="1">
          <mxGeometry x="-0.037" y="20" width="100" relative="1" as="geometry">
            <mxPoint x="811.5" y="747.5" as="sourcePoint" />
            <mxPoint x="892.5" y="747.5" as="targetPoint" />
            <mxPoint as="offset" />
          </mxGeometry>
        </mxCell>
        <mxCell id="SCVMTBWpLvtzJIhz15lM-28" value="Video Stream" style="edgeStyle=orthogonalEdgeStyle;html=1;endArrow=open;elbow=vertical;startArrow=none;endFill=0;strokeColor=#545B64;rounded=0;fontSize=14;strokeWidth=2;" parent="1" edge="1">
          <mxGeometry x="0.0038" y="-11" width="100" relative="1" as="geometry">
            <mxPoint x="262" y="913" as="sourcePoint" />
            <mxPoint x="472.5" y="913.5" as="targetPoint" />
            <mxPoint as="offset" />
            <Array as="points">
              <mxPoint x="367.5" y="913.5" />
            </Array>
          </mxGeometry>
        </mxCell>
        <mxCell id="SCVMTBWpLvtzJIhz15lM-29" value="" style="edgeStyle=orthogonalEdgeStyle;html=1;endArrow=open;elbow=vertical;startArrow=none;endFill=0;strokeColor=#545B64;rounded=0;fontSize=14;strokeWidth=2;" parent="1" edge="1">
          <mxGeometry x="0.0038" y="-11" width="100" relative="1" as="geometry">
            <mxPoint x="575.0714285714287" y="913.2142857142858" as="sourcePoint" />
            <mxPoint x="762.5" y="913.5" as="targetPoint" />
            <mxPoint as="offset" />
            <Array as="points">
              <mxPoint x="680.5" y="913.5" />
            </Array>
          </mxGeometry>
        </mxCell>
        <mxCell id="SCVMTBWpLvtzJIhz15lM-30" value="Build" style="outlineConnect=0;gradientColor=none;fontColor=#545B64;strokeColor=none;fillColor=#879196;dashed=0;verticalLabelPosition=bottom;verticalAlign=top;align=center;html=1;fontSize=12;fontStyle=0;aspect=fixed;shape=mxgraph.aws4.illustration_devices;pointerEvents=1" parent="1" vertex="1">
          <mxGeometry x="962.5" y="179.5" width="52" height="38" as="geometry" />
        </mxCell>
        <mxCell id="SCVMTBWpLvtzJIhz15lM-31" value="Train" style="outlineConnect=0;gradientColor=none;fontColor=#545B64;strokeColor=none;fillColor=#879196;dashed=0;verticalLabelPosition=bottom;verticalAlign=top;align=center;html=1;fontSize=12;fontStyle=0;aspect=fixed;shape=mxgraph.aws4.illustration_devices;pointerEvents=1" parent="1" vertex="1">
          <mxGeometry x="892.5" y="267.5" width="52" height="38" as="geometry" />
        </mxCell>
        <mxCell id="SCVMTBWpLvtzJIhz15lM-32" value="Optimize" style="outlineConnect=0;gradientColor=none;fontColor=#545B64;strokeColor=none;fillColor=#879196;dashed=0;verticalLabelPosition=bottom;verticalAlign=top;align=center;html=1;fontSize=12;fontStyle=0;aspect=fixed;shape=mxgraph.aws4.illustration_devices;pointerEvents=1" parent="1" vertex="1">
          <mxGeometry x="1032.5" y="267.5" width="52" height="38" as="geometry" />
        </mxCell>
        <mxCell id="SCVMTBWpLvtzJIhz15lM-33" value="" style="edgeStyle=orthogonalEdgeStyle;html=1;endArrow=open;elbow=vertical;startArrow=none;endFill=0;strokeColor=#545B64;rounded=0;fontSize=14;" parent="1" edge="1">
          <mxGeometry width="100" relative="1" as="geometry">
            <mxPoint x="958.5" y="293.5" as="sourcePoint" />
            <mxPoint x="1018.5" y="293.5" as="targetPoint" />
          </mxGeometry>
        </mxCell>
        <mxCell id="SCVMTBWpLvtzJIhz15lM-35" value="" style="edgeStyle=orthogonalEdgeStyle;html=1;endArrow=open;elbow=vertical;startArrow=none;endFill=0;strokeColor=#545B64;rounded=0;fontSize=14;" parent="1" edge="1">
          <mxGeometry width="100" relative="1" as="geometry">
            <mxPoint x="992.5" y="236.46774193548387" as="sourcePoint" />
            <mxPoint x="992.5" y="256.4677419354839" as="targetPoint" />
          </mxGeometry>
        </mxCell>
        <mxCell id="7OVz4w7n9kzEPWy-4BBC-3" value="" style="rounded=0;whiteSpace=wrap;html=1;fillColor=#EAEDED;fontSize=22;fontColor=#FFFFFF;strokeColor=none;labelBackgroundColor=none;" parent="1" vertex="1">
          <mxGeometry x="1151" y="51" width="539" height="1220" as="geometry" />
        </mxCell>
        <mxCell id="7OVz4w7n9kzEPWy-4BBC-4" value="1" style="rounded=1;whiteSpace=wrap;html=1;fillColor=#007CBD;strokeColor=none;fontColor=#FFFFFF;fontStyle=1;fontSize=22;labelBackgroundColor=none;" parent="1" vertex="1">
          <mxGeometry x="1169" y="63" width="40" height="38" as="geometry" />
        </mxCell>
        <mxCell id="7OVz4w7n9kzEPWy-4BBC-5" value="2" style="rounded=1;whiteSpace=wrap;html=1;fillColor=#007CBD;strokeColor=none;fontColor=#FFFFFF;fontStyle=1;fontSize=22;labelBackgroundColor=none;" parent="1" vertex="1">
          <mxGeometry x="1167.5" y="185" width="40" height="38" as="geometry" />
        </mxCell>
        <mxCell id="7OVz4w7n9kzEPWy-4BBC-6" value="3" style="rounded=1;whiteSpace=wrap;html=1;fillColor=#007CBD;strokeColor=none;fontColor=#FFFFFF;fontStyle=1;fontSize=22;labelBackgroundColor=none;" parent="1" vertex="1">
          <mxGeometry x="1167.5" y="305" width="40" height="38" as="geometry" />
        </mxCell>
        <mxCell id="7OVz4w7n9kzEPWy-4BBC-7" value="4" style="rounded=1;whiteSpace=wrap;html=1;fillColor=#007CBD;strokeColor=none;fontColor=#FFFFFF;fontStyle=1;fontSize=22;labelBackgroundColor=none;" parent="1" vertex="1">
          <mxGeometry x="1167.5" y="419" width="40" height="38" as="geometry" />
        </mxCell>
        <mxCell id="7OVz4w7n9kzEPWy-4BBC-8" value="5" style="rounded=1;whiteSpace=wrap;html=1;fillColor=#007CBD;strokeColor=none;fontColor=#FFFFFF;fontStyle=1;fontSize=22;labelBackgroundColor=none;" parent="1" vertex="1">
          <mxGeometry x="1169" y="536" width="40" height="38" as="geometry" />
        </mxCell>
        <mxCell id="7OVz4w7n9kzEPWy-4BBC-9" value="6" style="rounded=1;whiteSpace=wrap;html=1;fillColor=#007CBD;strokeColor=none;fontColor=#FFFFFF;fontStyle=1;fontSize=22;labelBackgroundColor=none;" parent="1" vertex="1">
          <mxGeometry x="1170" y="651" width="40" height="38" as="geometry" />
        </mxCell>
        <mxCell id="7OVz4w7n9kzEPWy-4BBC-10" value="7" style="rounded=1;whiteSpace=wrap;html=1;fillColor=#007CBD;strokeColor=none;fontColor=#FFFFFF;fontStyle=1;fontSize=22;labelBackgroundColor=none;" parent="1" vertex="1">
          <mxGeometry x="1169.5" y="767" width="40" height="38" as="geometry" />
        </mxCell>
        <mxCell id="7OVz4w7n9kzEPWy-4BBC-11" value="8" style="rounded=1;whiteSpace=wrap;html=1;fillColor=#007CBD;strokeColor=none;fontColor=#FFFFFF;fontStyle=1;fontSize=22;labelBackgroundColor=none;" parent="1" vertex="1">
          <mxGeometry x="1170" y="885" width="40" height="38" as="geometry" />
        </mxCell>
        <mxCell id="7OVz4w7n9kzEPWy-4BBC-12" value="9" style="rounded=1;whiteSpace=wrap;html=1;fillColor=#007CBD;strokeColor=none;fontColor=#FFFFFF;fontStyle=1;fontSize=22;labelBackgroundColor=none;" parent="1" vertex="1">
          <mxGeometry x="1168" y="1005" width="40" height="38" as="geometry" />
        </mxCell>
        <mxCell id="7OVz4w7n9kzEPWy-4BBC-13" value="&lt;span&gt;Lorem ipsum dolor sit amet, consectetur adipiscing elit, sed do eiusmod tempor incididunt ut labore et dolore magna aliqua. Ut enim ad minim veniam, quis nostrud exercitation ullamco laboris nisi ut aliquip ex ea commodo consequat. Duis aute irure dolor in reprehenderit in voluptate velit esse cillum dolore eu fugiat nulla pariatur. Excepteur sint occaecat cupidatat non proident, sunt in culpa qui officia deserunt mollit anim id est laborum.&lt;/span&gt;&lt;br&gt;" style="text;html=1;align=left;verticalAlign=top;spacingTop=-4;fontSize=14;labelBackgroundColor=none;whiteSpace=wrap;" parent="1" vertex="1">
          <mxGeometry x="1220.5" y="62.5" width="449" height="118" as="geometry" />
        </mxCell>
        <mxCell id="7OVz4w7n9kzEPWy-4BBC-14" value="&lt;span&gt;Lorem ipsum dolor sit amet, consectetur adipiscing elit, sed do eiusmod tempor incididunt ut labore et dolore magna aliqua. Ut enim ad minim veniam, quis nostrud exercitation ullamco laboris nisi ut aliquip ex ea commodo consequat. Duis aute irure dolor in reprehenderit in voluptate velit esse cillum dolore eu fugiat nulla pariatur. Excepteur sint occaecat cupidatat non proident, sunt in culpa qui officia deserunt mollit anim id est laborum.&lt;/span&gt;&lt;br&gt;" style="text;html=1;align=left;verticalAlign=top;spacingTop=-4;fontSize=14;labelBackgroundColor=none;whiteSpace=wrap;" parent="1" vertex="1">
          <mxGeometry x="1219.5" y="185.5" width="450" height="115" as="geometry" />
        </mxCell>
        <mxCell id="7OVz4w7n9kzEPWy-4BBC-15" value="&lt;span&gt;Lorem ipsum dolor sit amet, consectetur adipiscing elit, sed do eiusmod tempor incididunt ut labore et dolore magna aliqua. Ut enim ad minim veniam, quis nostrud exercitation ullamco laboris nisi ut aliquip ex ea commodo consequat. Duis aute irure dolor in reprehenderit in voluptate velit esse cillum dolore eu fugiat nulla pariatur. Excepteur sint occaecat cupidatat non proident, sunt in culpa qui officia deserunt mollit anim id est laborum.&lt;/span&gt;&lt;br&gt;" style="text;html=1;align=left;verticalAlign=top;spacingTop=-4;fontSize=14;labelBackgroundColor=none;whiteSpace=wrap;" parent="1" vertex="1">
          <mxGeometry x="1219.5" y="303.5" width="450" height="117" as="geometry" />
        </mxCell>
        <mxCell id="7OVz4w7n9kzEPWy-4BBC-16" value="&lt;span&gt;Lorem ipsum dolor sit amet, consectetur adipiscing elit, sed do eiusmod tempor incididunt ut labore et dolore magna aliqua. Ut enim ad minim veniam, quis nostrud exercitation ullamco laboris nisi ut aliquip ex ea commodo consequat. Duis aute irure dolor in reprehenderit in voluptate velit esse cillum dolore eu fugiat nulla pariatur. Excepteur sint occaecat cupidatat non proident, sunt in culpa qui officia deserunt mollit anim id est laborum.&lt;/span&gt;&lt;br&gt;" style="text;html=1;align=left;verticalAlign=top;spacingTop=-4;fontSize=14;labelBackgroundColor=none;whiteSpace=wrap;" parent="1" vertex="1">
          <mxGeometry x="1219.5" y="419.5" width="450" height="121" as="geometry" />
        </mxCell>
        <mxCell id="7OVz4w7n9kzEPWy-4BBC-17" value="&lt;span&gt;Lorem ipsum dolor sit amet, consectetur adipiscing elit, sed do eiusmod tempor incididunt ut labore et dolore magna aliqua. Ut enim ad minim veniam, quis nostrud exercitation ullamco laboris nisi ut aliquip ex ea commodo consequat. Duis aute irure dolor in reprehenderit in voluptate velit esse cillum dolore eu fugiat nulla pariatur. Excepteur sint occaecat cupidatat non proident, sunt in culpa qui officia deserunt mollit anim id est laborum.&lt;/span&gt;&lt;br&gt;" style="text;html=1;align=left;verticalAlign=top;spacingTop=-4;fontSize=14;labelBackgroundColor=none;whiteSpace=wrap;" parent="1" vertex="1">
          <mxGeometry x="1220.5" y="536.5" width="449" height="114" as="geometry" />
        </mxCell>
        <mxCell id="7OVz4w7n9kzEPWy-4BBC-18" value="&lt;span&gt;Lorem ipsum dolor sit amet, consectetur adipiscing elit, sed do eiusmod tempor incididunt ut labore et dolore magna aliqua. Ut enim ad minim veniam, quis nostrud exercitation ullamco laboris nisi ut aliquip ex ea commodo consequat. Duis aute irure dolor in reprehenderit in voluptate velit esse cillum dolore eu fugiat nulla pariatur. Excepteur sint occaecat cupidatat non proident, sunt in culpa qui officia deserunt mollit anim id est laborum.&lt;/span&gt;&lt;br&gt;" style="text;html=1;align=left;verticalAlign=top;spacingTop=-4;fontSize=14;labelBackgroundColor=none;whiteSpace=wrap;" parent="1" vertex="1">
          <mxGeometry x="1220.5" y="652.5" width="450" height="118" as="geometry" />
        </mxCell>
        <mxCell id="7OVz4w7n9kzEPWy-4BBC-19" value="&lt;span&gt;Lorem ipsum dolor sit amet, consectetur adipiscing elit, sed do eiusmod tempor incididunt ut labore et dolore magna aliqua. Ut enim ad minim veniam, quis nostrud exercitation ullamco laboris nisi ut aliquip ex ea commodo consequat. Duis aute irure dolor in reprehenderit in voluptate velit esse cillum dolore eu fugiat nulla pariatur. Excepteur sint occaecat cupidatat non proident, sunt in culpa qui officia deserunt mollit anim id est laborum.&lt;/span&gt;&lt;br&gt;" style="text;html=1;align=left;verticalAlign=top;spacingTop=-4;fontSize=14;labelBackgroundColor=none;whiteSpace=wrap;" parent="1" vertex="1">
          <mxGeometry x="1220.5" y="767.5" width="449" height="113" as="geometry" />
        </mxCell>
        <mxCell id="7OVz4w7n9kzEPWy-4BBC-20" value="&lt;span&gt;Lorem ipsum dolor sit amet, consectetur adipiscing elit, sed do eiusmod tempor incididunt ut labore et dolore magna aliqua. Ut enim ad minim veniam, quis nostrud exercitation ullamco laboris nisi ut aliquip ex ea commodo consequat. Duis aute irure dolor in reprehenderit in voluptate velit esse cillum dolore eu fugiat nulla pariatur. Excepteur sint occaecat cupidatat non proident, sunt in culpa qui officia deserunt mollit anim id est laborum.&lt;/span&gt;&lt;br&gt;" style="text;html=1;align=left;verticalAlign=top;spacingTop=-4;fontSize=14;labelBackgroundColor=none;whiteSpace=wrap;" parent="1" vertex="1">
          <mxGeometry x="1220.5" y="886.5" width="449" height="124" as="geometry" />
        </mxCell>
        <mxCell id="7OVz4w7n9kzEPWy-4BBC-21" value="&lt;span&gt;Lorem ipsum dolor sit amet, consectetur adipiscing elit, sed do eiusmod tempor incididunt ut labore et dolore magna aliqua. Ut enim ad minim veniam, quis nostrud exercitation ullamco laboris nisi ut aliquip ex ea commodo consequat. Duis aute irure dolor in reprehenderit in voluptate velit esse cillum dolore eu fugiat nulla pariatur. Excepteur sint occaecat cupidatat non proident, sunt in culpa qui officia deserunt mollit anim id est laborum.&lt;/span&gt;&lt;br&gt;" style="text;html=1;align=left;verticalAlign=top;spacingTop=-4;fontSize=14;labelBackgroundColor=none;whiteSpace=wrap;" parent="1" vertex="1">
          <mxGeometry x="1220.5" y="1005.5" width="449" height="115" as="geometry" />
        </mxCell>
        <mxCell id="7OVz4w7n9kzEPWy-4BBC-22" value="10" style="rounded=1;whiteSpace=wrap;html=1;fillColor=#007CBD;strokeColor=none;fontColor=#FFFFFF;fontStyle=1;fontSize=22;labelBackgroundColor=none;" parent="1" vertex="1">
          <mxGeometry x="1169" y="1130.5" width="40" height="38" as="geometry" />
        </mxCell>
        <mxCell id="7OVz4w7n9kzEPWy-4BBC-23" value="&lt;span&gt;Lorem ipsum dolor sit amet, consectetur adipiscing elit, sed do eiusmod tempor incididunt ut labore et dolore magna aliqua. Ut enim ad minim veniam, quis nostrud exercitation ullamco laboris nisi ut aliquip ex ea commodo consequat. Duis aute irure dolor in reprehenderit in voluptate velit esse cillum dolore eu fugiat nulla pariatur. Excepteur sint occaecat cupidatat non proident, sunt in culpa qui officia deserunt mollit anim id est laborum.&lt;/span&gt;&lt;br&gt;" style="text;html=1;align=left;verticalAlign=top;spacingTop=-4;fontSize=14;labelBackgroundColor=none;whiteSpace=wrap;" parent="1" vertex="1">
          <mxGeometry x="1221.5" y="1131" width="449" height="115" as="geometry" />
        </mxCell>
      </root>
    </mxGraphModel>
  </diagram>
  <diagram id="y18O3IjPL6HEcHrNPDFe" name="Page-2">
    <mxGraphModel dx="1422" dy="834" grid="1" gridSize="10" guides="1" tooltips="1" connect="1" arrows="1" fold="1" page="1" pageScale="1" pageWidth="1169" pageHeight="827" math="0" shadow="0">
      <root>
        <mxCell id="yYZkJvdA6SDyle5MAoHK-0" />
        <mxCell id="yYZkJvdA6SDyle5MAoHK-1" parent="yYZkJvdA6SDyle5MAoHK-0" />
        <mxCell id="yYZkJvdA6SDyle5MAoHK-2" value="&lt;span style=&quot;color: rgb(0 , 0 , 0) ; font-family: &amp;#34;helvetica&amp;#34; ; font-size: 30px ; font-style: normal ; font-weight: 700 ; letter-spacing: normal ; text-align: left ; text-indent: 0px ; text-transform: none ; word-spacing: 0px ; background-color: rgb(248 , 249 , 250) ; display: inline ; float: none&quot;&gt;Architecting Day 3&lt;/span&gt;" style="text;whiteSpace=wrap;html=1;" vertex="1" parent="yYZkJvdA6SDyle5MAoHK-1">
          <mxGeometry x="10" y="10" width="310" height="40" as="geometry" />
        </mxCell>
        <mxCell id="yYZkJvdA6SDyle5MAoHK-3" value="VPC" style="points=[[0,0],[0.25,0],[0.5,0],[0.75,0],[1,0],[1,0.25],[1,0.5],[1,0.75],[1,1],[0.75,1],[0.5,1],[0.25,1],[0,1],[0,0.75],[0,0.5],[0,0.25]];outlineConnect=0;gradientColor=none;html=1;whiteSpace=wrap;fontSize=12;fontStyle=0;shape=mxgraph.aws4.group;grIcon=mxgraph.aws4.group_vpc;strokeColor=#248814;fillColor=none;verticalAlign=top;align=left;spacingLeft=30;fontColor=#AAB7B8;dashed=0;" vertex="1" parent="yYZkJvdA6SDyle5MAoHK-1">
          <mxGeometry x="140" y="220" width="380" height="270" as="geometry" />
        </mxCell>
        <mxCell id="yYZkJvdA6SDyle5MAoHK-4" value="" style="outlineConnect=0;fontColor=#232F3E;gradientColor=#F78E04;gradientDirection=north;fillColor=#D05C17;strokeColor=#ffffff;dashed=0;verticalLabelPosition=bottom;verticalAlign=top;align=center;html=1;fontSize=12;fontStyle=0;aspect=fixed;shape=mxgraph.aws4.resourceIcon;resIcon=mxgraph.aws4.ec2;" vertex="1" parent="yYZkJvdA6SDyle5MAoHK-1">
          <mxGeometry x="210" y="316" width="78" height="78" as="geometry" />
        </mxCell>
        <mxCell id="yYZkJvdA6SDyle5MAoHK-5" value="SYSTEMS MANAGER" style="outlineConnect=0;fontColor=#232F3E;gradientColor=#F34482;gradientDirection=north;fillColor=#BC1356;strokeColor=#ffffff;dashed=0;verticalLabelPosition=bottom;verticalAlign=top;align=center;html=1;fontSize=12;fontStyle=0;aspect=fixed;shape=mxgraph.aws4.resourceIcon;resIcon=mxgraph.aws4.systems_manager;" vertex="1" parent="yYZkJvdA6SDyle5MAoHK-1">
          <mxGeometry x="850" y="310" width="78" height="78" as="geometry" />
        </mxCell>
        <mxCell id="yYZkJvdA6SDyle5MAoHK-7" value="VPC INTERFACE ENDPOINT FOR SSM" style="outlineConnect=0;fontColor=#232F3E;gradientColor=none;fillColor=#5A30B5;strokeColor=none;dashed=0;verticalLabelPosition=bottom;verticalAlign=top;align=center;html=1;fontSize=17;fontStyle=0;aspect=fixed;pointerEvents=1;shape=mxgraph.aws4.elastic_network_interface;" vertex="1" parent="yYZkJvdA6SDyle5MAoHK-1">
          <mxGeometry x="490" y="340" width="70" height="70" as="geometry" />
        </mxCell>
        <mxCell id="yYZkJvdA6SDyle5MAoHK-8" value="SSM AGENT" style="rounded=1;whiteSpace=wrap;html=1;align=left;fontSize=17;" vertex="1" parent="yYZkJvdA6SDyle5MAoHK-1">
          <mxGeometry x="230" y="316" width="60" height="40" as="geometry" />
        </mxCell>
      </root>
    </mxGraphModel>
  </diagram>
  <diagram id="642E5xl1mi_buTu4WrkP" name="Page-3">
    <mxGraphModel dx="1422" dy="834" grid="1" gridSize="10" guides="1" tooltips="1" connect="1" arrows="1" fold="1" page="1" pageScale="1" pageWidth="1169" pageHeight="827" math="0" shadow="0">
      <root>
        <mxCell id="VhFC0479dY_hRutw9vSe-0" />
        <mxCell id="VhFC0479dY_hRutw9vSe-1" parent="VhFC0479dY_hRutw9vSe-0" />
        <mxCell id="VhFC0479dY_hRutw9vSe-18" value="" style="rounded=1;whiteSpace=wrap;html=1;fontSize=17;fillColor=#d5e8d4;strokeColor=#82b366;" vertex="1" parent="VhFC0479dY_hRutw9vSe-1">
          <mxGeometry x="230" y="440" width="720" height="60" as="geometry" />
        </mxCell>
        <mxCell id="VhFC0479dY_hRutw9vSe-2" value="ELB" style="rounded=1;whiteSpace=wrap;html=1;fontSize=17;" vertex="1" parent="VhFC0479dY_hRutw9vSe-1">
          <mxGeometry x="500" y="110" width="120" height="60" as="geometry" />
        </mxCell>
        <mxCell id="VhFC0479dY_hRutw9vSe-3" value="EC2" style="rounded=1;whiteSpace=wrap;html=1;fontSize=17;" vertex="1" parent="VhFC0479dY_hRutw9vSe-1">
          <mxGeometry x="230" y="290" width="120" height="60" as="geometry" />
        </mxCell>
        <mxCell id="VhFC0479dY_hRutw9vSe-4" value="EC2" style="rounded=1;whiteSpace=wrap;html=1;fontSize=17;" vertex="1" parent="VhFC0479dY_hRutw9vSe-1">
          <mxGeometry x="670" y="290" width="120" height="60" as="geometry" />
        </mxCell>
        <mxCell id="VhFC0479dY_hRutw9vSe-5" value="EC2" style="rounded=1;whiteSpace=wrap;html=1;fontSize=17;" vertex="1" parent="VhFC0479dY_hRutw9vSe-1">
          <mxGeometry x="530" y="290" width="120" height="60" as="geometry" />
        </mxCell>
        <mxCell id="VhFC0479dY_hRutw9vSe-6" value="EC2" style="rounded=1;whiteSpace=wrap;html=1;fontSize=17;" vertex="1" parent="VhFC0479dY_hRutw9vSe-1">
          <mxGeometry x="390" y="290" width="120" height="60" as="geometry" />
        </mxCell>
        <mxCell id="VhFC0479dY_hRutw9vSe-8" value="" style="rounded=1;whiteSpace=wrap;html=1;align=left;fontSize=17;" vertex="1" parent="VhFC0479dY_hRutw9vSe-1">
          <mxGeometry x="140" y="10" width="120" height="60" as="geometry" />
        </mxCell>
        <mxCell id="VhFC0479dY_hRutw9vSe-10" value="" style="endArrow=none;html=1;fontSize=17;" edge="1" parent="VhFC0479dY_hRutw9vSe-1" target="VhFC0479dY_hRutw9vSe-2">
          <mxGeometry width="50" height="50" relative="1" as="geometry">
            <mxPoint x="240" y="100" as="sourcePoint" />
            <mxPoint x="610" y="400" as="targetPoint" />
          </mxGeometry>
        </mxCell>
        <mxCell id="VhFC0479dY_hRutw9vSe-11" value="" style="endArrow=none;html=1;fontSize=17;exitX=0.633;exitY=0.017;exitDx=0;exitDy=0;exitPerimeter=0;" edge="1" parent="VhFC0479dY_hRutw9vSe-1" source="VhFC0479dY_hRutw9vSe-3">
          <mxGeometry width="50" height="50" relative="1" as="geometry">
            <mxPoint x="560" y="450" as="sourcePoint" />
            <mxPoint x="470" y="200" as="targetPoint" />
          </mxGeometry>
        </mxCell>
        <mxCell id="VhFC0479dY_hRutw9vSe-12" value="" style="rounded=1;whiteSpace=wrap;html=1;align=left;fontSize=17;" vertex="1" parent="VhFC0479dY_hRutw9vSe-1">
          <mxGeometry x="290" y="10" width="120" height="60" as="geometry" />
        </mxCell>
        <mxCell id="VhFC0479dY_hRutw9vSe-13" value="Ali" style="shape=umlActor;verticalLabelPosition=bottom;verticalAlign=top;html=1;outlineConnect=0;align=left;fontSize=17;" vertex="1" parent="VhFC0479dY_hRutw9vSe-1">
          <mxGeometry x="190" y="50" width="30" height="60" as="geometry" />
        </mxCell>
        <mxCell id="VhFC0479dY_hRutw9vSe-7" value="Bob" style="shape=umlActor;verticalLabelPosition=bottom;verticalAlign=top;html=1;outlineConnect=0;align=left;fontSize=17;" vertex="1" parent="VhFC0479dY_hRutw9vSe-1">
          <mxGeometry x="330" y="40" width="30" height="60" as="geometry" />
        </mxCell>
        <mxCell id="VhFC0479dY_hRutw9vSe-14" value="" style="endArrow=none;html=1;fontSize=17;entryX=0.5;entryY=0;entryDx=0;entryDy=0;" edge="1" parent="VhFC0479dY_hRutw9vSe-1" target="VhFC0479dY_hRutw9vSe-2">
          <mxGeometry width="50" height="50" relative="1" as="geometry">
            <mxPoint x="380" y="80" as="sourcePoint" />
            <mxPoint x="610" y="400" as="targetPoint" />
          </mxGeometry>
        </mxCell>
        <mxCell id="VhFC0479dY_hRutw9vSe-15" value="" style="endArrow=none;html=1;fontSize=17;exitX=0.642;exitY=-0.017;exitDx=0;exitDy=0;exitPerimeter=0;" edge="1" parent="VhFC0479dY_hRutw9vSe-1" source="VhFC0479dY_hRutw9vSe-5" target="VhFC0479dY_hRutw9vSe-2">
          <mxGeometry width="50" height="50" relative="1" as="geometry">
            <mxPoint x="560" y="450" as="sourcePoint" />
            <mxPoint x="610" y="400" as="targetPoint" />
          </mxGeometry>
        </mxCell>
        <mxCell id="VhFC0479dY_hRutw9vSe-16" value="Ali Session State" style="shape=process;whiteSpace=wrap;html=1;backgroundOutline=1;fontSize=17;" vertex="1" parent="VhFC0479dY_hRutw9vSe-1">
          <mxGeometry x="260" y="470" width="120" height="50" as="geometry" />
        </mxCell>
        <mxCell id="VhFC0479dY_hRutw9vSe-19" value="" style="endArrow=classic;html=1;fontSize=17;entryX=0.5;entryY=1;entryDx=0;entryDy=0;" edge="1" parent="VhFC0479dY_hRutw9vSe-1" target="VhFC0479dY_hRutw9vSe-6">
          <mxGeometry width="50" height="50" relative="1" as="geometry">
            <mxPoint x="450" y="430" as="sourcePoint" />
            <mxPoint x="610" y="380" as="targetPoint" />
          </mxGeometry>
        </mxCell>
        <mxCell id="VhFC0479dY_hRutw9vSe-17" value="Bob Session State" style="shape=process;whiteSpace=wrap;html=1;backgroundOutline=1;fontSize=17;" vertex="1" parent="VhFC0479dY_hRutw9vSe-1">
          <mxGeometry x="540" y="480" width="120" height="50" as="geometry" />
        </mxCell>
        <mxCell id="VhFC0479dY_hRutw9vSe-20" value="" style="endArrow=classic;html=1;fontSize=17;entryX=0.5;entryY=1;entryDx=0;entryDy=0;" edge="1" parent="VhFC0479dY_hRutw9vSe-1">
          <mxGeometry width="50" height="50" relative="1" as="geometry">
            <mxPoint x="585" y="430" as="sourcePoint" />
            <mxPoint x="585" y="350" as="targetPoint" />
          </mxGeometry>
        </mxCell>
        <mxCell id="VhFC0479dY_hRutw9vSe-21" value="" style="endArrow=classic;html=1;fontSize=17;entryX=0.5;entryY=1;entryDx=0;entryDy=0;" edge="1" parent="VhFC0479dY_hRutw9vSe-1">
          <mxGeometry width="50" height="50" relative="1" as="geometry">
            <mxPoint x="289" y="440" as="sourcePoint" />
            <mxPoint x="289" y="360" as="targetPoint" />
          </mxGeometry>
        </mxCell>
        <mxCell id="VhFC0479dY_hRutw9vSe-22" value="" style="endArrow=classic;html=1;fontSize=17;entryX=0.5;entryY=1;entryDx=0;entryDy=0;" edge="1" parent="VhFC0479dY_hRutw9vSe-1">
          <mxGeometry width="50" height="50" relative="1" as="geometry">
            <mxPoint x="729.5" y="430" as="sourcePoint" />
            <mxPoint x="729.5" y="350" as="targetPoint" />
          </mxGeometry>
        </mxCell>
        <mxCell id="VhFC0479dY_hRutw9vSe-23" value="Actor" style="shape=umlActor;verticalLabelPosition=bottom;verticalAlign=top;html=1;outlineConnect=0;align=left;fontSize=17;" vertex="1" parent="VhFC0479dY_hRutw9vSe-1">
          <mxGeometry x="520" y="10" width="30" height="60" as="geometry" />
        </mxCell>
        <mxCell id="VhFC0479dY_hRutw9vSe-24" value="Actor" style="shape=umlActor;verticalLabelPosition=bottom;verticalAlign=top;html=1;outlineConnect=0;align=left;fontSize=17;" vertex="1" parent="VhFC0479dY_hRutw9vSe-1">
          <mxGeometry x="530" y="20" width="30" height="60" as="geometry" />
        </mxCell>
        <mxCell id="VhFC0479dY_hRutw9vSe-25" value="Actor" style="shape=umlActor;verticalLabelPosition=bottom;verticalAlign=top;html=1;outlineConnect=0;align=left;fontSize=17;" vertex="1" parent="VhFC0479dY_hRutw9vSe-1">
          <mxGeometry x="540" y="30" width="30" height="60" as="geometry" />
        </mxCell>
        <mxCell id="VhFC0479dY_hRutw9vSe-26" value="Actor" style="shape=umlActor;verticalLabelPosition=bottom;verticalAlign=top;html=1;outlineConnect=0;align=left;fontSize=17;" vertex="1" parent="VhFC0479dY_hRutw9vSe-1">
          <mxGeometry x="550" y="40" width="30" height="60" as="geometry" />
        </mxCell>
        <mxCell id="VhFC0479dY_hRutw9vSe-27" value="Actor" style="shape=umlActor;verticalLabelPosition=bottom;verticalAlign=top;html=1;outlineConnect=0;align=left;fontSize=17;" vertex="1" parent="VhFC0479dY_hRutw9vSe-1">
          <mxGeometry x="560" y="50" width="30" height="60" as="geometry" />
        </mxCell>
        <mxCell id="VhFC0479dY_hRutw9vSe-28" value="Actor" style="shape=umlActor;verticalLabelPosition=bottom;verticalAlign=top;html=1;outlineConnect=0;align=left;fontSize=17;" vertex="1" parent="VhFC0479dY_hRutw9vSe-1">
          <mxGeometry x="570" y="60" width="30" height="60" as="geometry" />
        </mxCell>
        <mxCell id="VhFC0479dY_hRutw9vSe-29" value="Actor" style="shape=umlActor;verticalLabelPosition=bottom;verticalAlign=top;html=1;outlineConnect=0;align=left;fontSize=17;" vertex="1" parent="VhFC0479dY_hRutw9vSe-1">
          <mxGeometry x="580" y="70" width="30" height="60" as="geometry" />
        </mxCell>
        <mxCell id="VhFC0479dY_hRutw9vSe-30" value="Actor" style="shape=umlActor;verticalLabelPosition=bottom;verticalAlign=top;html=1;outlineConnect=0;align=left;fontSize=17;" vertex="1" parent="VhFC0479dY_hRutw9vSe-1">
          <mxGeometry x="590" y="80" width="30" height="60" as="geometry" />
        </mxCell>
        <mxCell id="VhFC0479dY_hRutw9vSe-31" value="Actor" style="shape=umlActor;verticalLabelPosition=bottom;verticalAlign=top;html=1;outlineConnect=0;align=left;fontSize=17;" vertex="1" parent="VhFC0479dY_hRutw9vSe-1">
          <mxGeometry x="600" y="90" width="30" height="60" as="geometry" />
        </mxCell>
        <mxCell id="VhFC0479dY_hRutw9vSe-32" value="Actor" style="shape=umlActor;verticalLabelPosition=bottom;verticalAlign=top;html=1;outlineConnect=0;align=left;fontSize=17;" vertex="1" parent="VhFC0479dY_hRutw9vSe-1">
          <mxGeometry x="610" y="100" width="30" height="60" as="geometry" />
        </mxCell>
        <mxCell id="VhFC0479dY_hRutw9vSe-33" value="Actor" style="shape=umlActor;verticalLabelPosition=bottom;verticalAlign=top;html=1;outlineConnect=0;align=left;fontSize=17;" vertex="1" parent="VhFC0479dY_hRutw9vSe-1">
          <mxGeometry x="620" y="110" width="30" height="60" as="geometry" />
        </mxCell>
        <mxCell id="VhFC0479dY_hRutw9vSe-34" value="Actor" style="shape=umlActor;verticalLabelPosition=bottom;verticalAlign=top;html=1;outlineConnect=0;align=left;fontSize=17;" vertex="1" parent="VhFC0479dY_hRutw9vSe-1">
          <mxGeometry x="630" y="120" width="30" height="60" as="geometry" />
        </mxCell>
        <mxCell id="VhFC0479dY_hRutw9vSe-35" value="Actor" style="shape=umlActor;verticalLabelPosition=bottom;verticalAlign=top;html=1;outlineConnect=0;align=left;fontSize=17;" vertex="1" parent="VhFC0479dY_hRutw9vSe-1">
          <mxGeometry x="650" y="130" width="30" height="60" as="geometry" />
        </mxCell>
        <mxCell id="VhFC0479dY_hRutw9vSe-36" value="EC2" style="rounded=1;whiteSpace=wrap;html=1;fontSize=17;" vertex="1" parent="VhFC0479dY_hRutw9vSe-1">
          <mxGeometry x="810" y="290" width="120" height="60" as="geometry" />
        </mxCell>
        <mxCell id="VhFC0479dY_hRutw9vSe-37" value="EC2" style="rounded=1;whiteSpace=wrap;html=1;fontSize=17;" vertex="1" parent="VhFC0479dY_hRutw9vSe-1">
          <mxGeometry x="950" y="290" width="120" height="60" as="geometry" />
        </mxCell>
      </root>
    </mxGraphModel>
  </diagram>
  <diagram id="oVU94hfj1nfbPVncykna" name="Page-4">
    <mxGraphModel dx="1422" dy="834" grid="1" gridSize="10" guides="1" tooltips="1" connect="1" arrows="1" fold="1" page="1" pageScale="1" pageWidth="1169" pageHeight="827" math="0" shadow="0">
      <root>
        <mxCell id="OFDzk9pB6apWtKZSvPR1-0" />
        <mxCell id="OFDzk9pB6apWtKZSvPR1-1" parent="OFDzk9pB6apWtKZSvPR1-0" />
        <mxCell id="OFDzk9pB6apWtKZSvPR1-26" value="DEAD LETTER Q" style="rounded=1;whiteSpace=wrap;html=1;fontSize=17;" vertex="1" parent="OFDzk9pB6apWtKZSvPR1-1">
          <mxGeometry x="270" y="560" width="540" height="60" as="geometry" />
        </mxCell>
        <mxCell id="OFDzk9pB6apWtKZSvPR1-2" value="SQS QUEUE 1" style="rounded=1;whiteSpace=wrap;html=1;fontSize=17;" vertex="1" parent="OFDzk9pB6apWtKZSvPR1-1">
          <mxGeometry x="270" y="370" width="540" height="60" as="geometry" />
        </mxCell>
        <mxCell id="OFDzk9pB6apWtKZSvPR1-3" value="EC2" style="rounded=1;whiteSpace=wrap;html=1;align=center;fontSize=17;" vertex="1" parent="OFDzk9pB6apWtKZSvPR1-1">
          <mxGeometry x="10" y="30" width="280" height="220" as="geometry" />
        </mxCell>
        <mxCell id="OFDzk9pB6apWtKZSvPR1-4" value="MyApp (Python)&lt;br&gt;AWS SDK for Python" style="rounded=1;whiteSpace=wrap;html=1;align=left;fontSize=17;fillColor=#f8cecc;strokeColor=#b85450;" vertex="1" parent="OFDzk9pB6apWtKZSvPR1-1">
          <mxGeometry x="130" y="190" width="150" height="60" as="geometry" />
        </mxCell>
        <mxCell id="OFDzk9pB6apWtKZSvPR1-5" value="" style="endArrow=none;html=1;fontSize=17;entryX=0.5;entryY=1;entryDx=0;entryDy=0;exitX=0.039;exitY=-0.017;exitDx=0;exitDy=0;exitPerimeter=0;" edge="1" parent="OFDzk9pB6apWtKZSvPR1-1" source="OFDzk9pB6apWtKZSvPR1-2" target="OFDzk9pB6apWtKZSvPR1-4">
          <mxGeometry width="50" height="50" relative="1" as="geometry">
            <mxPoint x="560" y="420" as="sourcePoint" />
            <mxPoint x="610" y="370" as="targetPoint" />
          </mxGeometry>
        </mxCell>
        <mxCell id="OFDzk9pB6apWtKZSvPR1-6" value="PutItem(MyMessage)" style="text;html=1;strokeColor=none;fillColor=none;align=center;verticalAlign=middle;whiteSpace=wrap;rounded=0;fontSize=17;" vertex="1" parent="OFDzk9pB6apWtKZSvPR1-1">
          <mxGeometry x="230" y="270" width="40" height="20" as="geometry" />
        </mxCell>
        <mxCell id="OFDzk9pB6apWtKZSvPR1-8" value="PRODUCER" style="text;html=1;strokeColor=none;fillColor=none;align=center;verticalAlign=middle;whiteSpace=wrap;rounded=0;fontSize=21;fontStyle=1" vertex="1" parent="OFDzk9pB6apWtKZSvPR1-1">
          <mxGeometry x="170" y="500" width="40" height="20" as="geometry" />
        </mxCell>
        <mxCell id="OFDzk9pB6apWtKZSvPR1-9" value="" style="shape=process;whiteSpace=wrap;html=1;backgroundOutline=1;fontSize=17;align=center;" vertex="1" parent="OFDzk9pB6apWtKZSvPR1-1">
          <mxGeometry x="330" y="380" width="40" height="40" as="geometry" />
        </mxCell>
        <mxCell id="OFDzk9pB6apWtKZSvPR1-11" value="" style="shape=process;whiteSpace=wrap;html=1;backgroundOutline=1;fontSize=17;align=center;" vertex="1" parent="OFDzk9pB6apWtKZSvPR1-1">
          <mxGeometry x="430" y="380" width="40" height="40" as="geometry" />
        </mxCell>
        <mxCell id="OFDzk9pB6apWtKZSvPR1-14" value="EC2" style="rounded=1;whiteSpace=wrap;html=1;align=center;fontSize=17;" vertex="1" parent="OFDzk9pB6apWtKZSvPR1-1">
          <mxGeometry x="1005" y="60" width="250" height="200" as="geometry" />
        </mxCell>
        <mxCell id="OFDzk9pB6apWtKZSvPR1-15" value="MyConsumer App (Java)&lt;br&gt;AWS SDK for Java" style="rounded=1;whiteSpace=wrap;html=1;align=left;fontSize=17;fillColor=#f8cecc;strokeColor=#b85450;" vertex="1" parent="OFDzk9pB6apWtKZSvPR1-1">
          <mxGeometry x="1045" y="200" width="210" height="60" as="geometry" />
        </mxCell>
        <mxCell id="OFDzk9pB6apWtKZSvPR1-16" value="" style="endArrow=none;html=1;fontSize=21;exitX=0.974;exitY=-0.083;exitDx=0;exitDy=0;exitPerimeter=0;" edge="1" parent="OFDzk9pB6apWtKZSvPR1-1" source="OFDzk9pB6apWtKZSvPR1-17" target="OFDzk9pB6apWtKZSvPR1-15">
          <mxGeometry width="50" height="50" relative="1" as="geometry">
            <mxPoint x="715" y="420" as="sourcePoint" />
            <mxPoint x="765" y="370" as="targetPoint" />
          </mxGeometry>
        </mxCell>
        <mxCell id="OFDzk9pB6apWtKZSvPR1-17" value="FetchItem()" style="text;html=1;strokeColor=none;fillColor=none;align=center;verticalAlign=middle;whiteSpace=wrap;rounded=0;fontSize=17;" vertex="1" parent="OFDzk9pB6apWtKZSvPR1-1">
          <mxGeometry x="1075" y="290" width="40" height="20" as="geometry" />
        </mxCell>
        <mxCell id="OFDzk9pB6apWtKZSvPR1-18" value="" style="endArrow=none;html=1;fontSize=21;exitX=0.974;exitY=-0.083;exitDx=0;exitDy=0;exitPerimeter=0;" edge="1" parent="OFDzk9pB6apWtKZSvPR1-1" source="OFDzk9pB6apWtKZSvPR1-2" target="OFDzk9pB6apWtKZSvPR1-17">
          <mxGeometry width="50" height="50" relative="1" as="geometry">
            <mxPoint x="795.96" y="365.02" as="sourcePoint" />
            <mxPoint x="953.824989656599" y="250" as="targetPoint" />
          </mxGeometry>
        </mxCell>
        <mxCell id="OFDzk9pB6apWtKZSvPR1-20" value="Invisibility Timeout" style="text;html=1;strokeColor=none;fillColor=none;align=center;verticalAlign=middle;whiteSpace=wrap;rounded=0;fontSize=21;" vertex="1" parent="OFDzk9pB6apWtKZSvPR1-1">
          <mxGeometry x="760" y="460" width="40" height="20" as="geometry" />
        </mxCell>
        <mxCell id="OFDzk9pB6apWtKZSvPR1-21" value="CONSUMER" style="text;html=1;strokeColor=none;fillColor=none;align=center;verticalAlign=middle;whiteSpace=wrap;rounded=0;fontSize=21;fontStyle=1" vertex="1" parent="OFDzk9pB6apWtKZSvPR1-1">
          <mxGeometry x="960" y="480" width="40" height="20" as="geometry" />
        </mxCell>
        <mxCell id="OFDzk9pB6apWtKZSvPR1-22" value="EC2" style="rounded=1;whiteSpace=wrap;html=1;align=center;fontSize=17;" vertex="1" parent="OFDzk9pB6apWtKZSvPR1-1">
          <mxGeometry x="740" y="60" width="250" height="200" as="geometry" />
        </mxCell>
        <mxCell id="OFDzk9pB6apWtKZSvPR1-23" value="MyConsumer App (Java)&lt;br&gt;AWS SDK for Java" style="rounded=1;whiteSpace=wrap;html=1;align=left;fontSize=17;fillColor=#f8cecc;strokeColor=#b85450;" vertex="1" parent="OFDzk9pB6apWtKZSvPR1-1">
          <mxGeometry x="780" y="200" width="210" height="60" as="geometry" />
        </mxCell>
        <mxCell id="OFDzk9pB6apWtKZSvPR1-24" value="" style="endArrow=none;html=1;fontSize=21;" edge="1" parent="OFDzk9pB6apWtKZSvPR1-1" target="OFDzk9pB6apWtKZSvPR1-15">
          <mxGeometry width="50" height="50" relative="1" as="geometry">
            <mxPoint x="730" y="360" as="sourcePoint" />
            <mxPoint x="610" y="350" as="targetPoint" />
          </mxGeometry>
        </mxCell>
        <mxCell id="OFDzk9pB6apWtKZSvPR1-25" value="Delete Message" style="edgeLabel;html=1;align=center;verticalAlign=middle;resizable=0;points=[];fontSize=18;" vertex="1" connectable="0" parent="OFDzk9pB6apWtKZSvPR1-24">
          <mxGeometry x="-0.153" y="3" relative="1" as="geometry">
            <mxPoint as="offset" />
          </mxGeometry>
        </mxCell>
        <mxCell id="OFDzk9pB6apWtKZSvPR1-12" value="X" style="shape=process;whiteSpace=wrap;html=1;backgroundOutline=1;fontSize=17;align=center;fillColor=#f8cecc;strokeColor=#b85450;" vertex="1" parent="OFDzk9pB6apWtKZSvPR1-1">
          <mxGeometry x="720" y="570" width="40" height="40" as="geometry" />
        </mxCell>
      </root>
    </mxGraphModel>
  </diagram>
  <diagram id="srC8Ei7h86K-Fxd2kHXs" name="Page-5">
    <mxGraphModel dx="2591" dy="834" grid="1" gridSize="10" guides="1" tooltips="1" connect="1" arrows="1" fold="1" page="1" pageScale="1" pageWidth="1169" pageHeight="827" math="0" shadow="0">
      <root>
        <mxCell id="h_DhaQC7bqa9rS6yFAGx-0" />
        <mxCell id="h_DhaQC7bqa9rS6yFAGx-1" parent="h_DhaQC7bqa9rS6yFAGx-0" />
        <mxCell id="h_DhaQC7bqa9rS6yFAGx-2" value="Global Users of My App&lt;br&gt;" style="text;html=1;strokeColor=none;fillColor=none;align=center;verticalAlign=middle;whiteSpace=wrap;rounded=0;fontSize=17;" vertex="1" parent="h_DhaQC7bqa9rS6yFAGx-1">
          <mxGeometry x="90" y="200" width="510" height="20" as="geometry" />
        </mxCell>
        <mxCell id="h_DhaQC7bqa9rS6yFAGx-3" value="LONDON" style="rounded=1;whiteSpace=wrap;html=1;align=center;fontSize=17;" vertex="1" parent="h_DhaQC7bqa9rS6yFAGx-1">
          <mxGeometry x="60" y="420" width="440" height="340" as="geometry" />
        </mxCell>
        <mxCell id="h_DhaQC7bqa9rS6yFAGx-4" value="IRELAND" style="rounded=1;whiteSpace=wrap;html=1;align=center;fontSize=17;" vertex="1" parent="h_DhaQC7bqa9rS6yFAGx-1">
          <mxGeometry x="640" y="410" width="440" height="340" as="geometry" />
        </mxCell>
        <mxCell id="h_DhaQC7bqa9rS6yFAGx-5" value="" style="outlineConnect=0;fontColor=#232F3E;gradientColor=#F78E04;gradientDirection=north;fillColor=#D05C17;strokeColor=#ffffff;dashed=0;verticalLabelPosition=bottom;verticalAlign=top;align=center;html=1;fontSize=12;fontStyle=0;aspect=fixed;shape=mxgraph.aws4.resourceIcon;resIcon=mxgraph.aws4.ec2;" vertex="1" parent="h_DhaQC7bqa9rS6yFAGx-1">
          <mxGeometry x="90" y="486" width="78" height="78" as="geometry" />
        </mxCell>
        <mxCell id="h_DhaQC7bqa9rS6yFAGx-6" value="" style="outlineConnect=0;fontColor=#232F3E;gradientColor=#F78E04;gradientDirection=north;fillColor=#D05C17;strokeColor=#ffffff;dashed=0;verticalLabelPosition=bottom;verticalAlign=top;align=center;html=1;fontSize=12;fontStyle=0;aspect=fixed;shape=mxgraph.aws4.resourceIcon;resIcon=mxgraph.aws4.ec2;" vertex="1" parent="h_DhaQC7bqa9rS6yFAGx-1">
          <mxGeometry x="180" y="486" width="78" height="78" as="geometry" />
        </mxCell>
        <mxCell id="h_DhaQC7bqa9rS6yFAGx-7" value="" style="outlineConnect=0;fontColor=#232F3E;gradientColor=#945DF2;gradientDirection=north;fillColor=#5A30B5;strokeColor=#ffffff;dashed=0;verticalLabelPosition=bottom;verticalAlign=top;align=center;html=1;fontSize=12;fontStyle=0;aspect=fixed;shape=mxgraph.aws4.resourceIcon;resIcon=mxgraph.aws4.elastic_load_balancing;" vertex="1" parent="h_DhaQC7bqa9rS6yFAGx-1">
          <mxGeometry x="130" y="396" width="78" height="78" as="geometry" />
        </mxCell>
        <mxCell id="h_DhaQC7bqa9rS6yFAGx-8" value="" style="outlineConnect=0;fontColor=#232F3E;gradientColor=#F78E04;gradientDirection=north;fillColor=#D05C17;strokeColor=#ffffff;dashed=0;verticalLabelPosition=bottom;verticalAlign=top;align=center;html=1;fontSize=12;fontStyle=0;aspect=fixed;shape=mxgraph.aws4.resourceIcon;resIcon=mxgraph.aws4.ec2;" vertex="1" parent="h_DhaQC7bqa9rS6yFAGx-1">
          <mxGeometry x="660" y="480" width="78" height="78" as="geometry" />
        </mxCell>
        <mxCell id="h_DhaQC7bqa9rS6yFAGx-9" value="" style="outlineConnect=0;fontColor=#232F3E;gradientColor=#F78E04;gradientDirection=north;fillColor=#D05C17;strokeColor=#ffffff;dashed=0;verticalLabelPosition=bottom;verticalAlign=top;align=center;html=1;fontSize=12;fontStyle=0;aspect=fixed;shape=mxgraph.aws4.resourceIcon;resIcon=mxgraph.aws4.ec2;" vertex="1" parent="h_DhaQC7bqa9rS6yFAGx-1">
          <mxGeometry x="750" y="480" width="78" height="78" as="geometry" />
        </mxCell>
        <mxCell id="h_DhaQC7bqa9rS6yFAGx-10" value="" style="outlineConnect=0;fontColor=#232F3E;gradientColor=#945DF2;gradientDirection=north;fillColor=#5A30B5;strokeColor=#ffffff;dashed=0;verticalLabelPosition=bottom;verticalAlign=top;align=center;html=1;fontSize=12;fontStyle=0;aspect=fixed;shape=mxgraph.aws4.resourceIcon;resIcon=mxgraph.aws4.elastic_load_balancing;" vertex="1" parent="h_DhaQC7bqa9rS6yFAGx-1">
          <mxGeometry x="700" y="390" width="78" height="78" as="geometry" />
        </mxCell>
        <mxCell id="h_DhaQC7bqa9rS6yFAGx-11" value="ROUTE53" style="outlineConnect=0;fontColor=#232F3E;gradientColor=none;fillColor=#5A30B5;strokeColor=none;dashed=0;verticalLabelPosition=bottom;verticalAlign=top;align=center;html=1;fontSize=12;fontStyle=0;aspect=fixed;pointerEvents=1;shape=mxgraph.aws4.hosted_zone;" vertex="1" parent="h_DhaQC7bqa9rS6yFAGx-1">
          <mxGeometry x="560" y="190" width="78" height="77" as="geometry" />
        </mxCell>
        <mxCell id="h_DhaQC7bqa9rS6yFAGx-12" value="" style="endArrow=none;html=1;fontSize=17;" edge="1" parent="h_DhaQC7bqa9rS6yFAGx-1" source="h_DhaQC7bqa9rS6yFAGx-14" target="h_DhaQC7bqa9rS6yFAGx-11">
          <mxGeometry width="50" height="50" relative="1" as="geometry">
            <mxPoint x="590" y="550" as="sourcePoint" />
            <mxPoint x="640" y="500" as="targetPoint" />
          </mxGeometry>
        </mxCell>
        <mxCell id="h_DhaQC7bqa9rS6yFAGx-13" value="" style="endArrow=none;html=1;fontSize=17;exitX=0.255;exitY=-0.026;exitDx=0;exitDy=0;exitPerimeter=0;" edge="1" parent="h_DhaQC7bqa9rS6yFAGx-1" source="h_DhaQC7bqa9rS6yFAGx-43" target="h_DhaQC7bqa9rS6yFAGx-11">
          <mxGeometry width="50" height="50" relative="1" as="geometry">
            <mxPoint x="218" y="426.27093023255816" as="sourcePoint" />
            <mxPoint x="570.1183814303638" y="257.172219150302" as="targetPoint" />
          </mxGeometry>
        </mxCell>
        <mxCell id="h_DhaQC7bqa9rS6yFAGx-14" value="CF DISTRIBUTION" style="rounded=1;whiteSpace=wrap;html=1;align=left;fontSize=17;" vertex="1" parent="h_DhaQC7bqa9rS6yFAGx-1">
          <mxGeometry x="300" y="290" width="120" height="60" as="geometry" />
        </mxCell>
        <mxCell id="h_DhaQC7bqa9rS6yFAGx-15" value="" style="endArrow=none;html=1;fontSize=17;" edge="1" parent="h_DhaQC7bqa9rS6yFAGx-1" source="h_DhaQC7bqa9rS6yFAGx-7" target="h_DhaQC7bqa9rS6yFAGx-14">
          <mxGeometry width="50" height="50" relative="1" as="geometry">
            <mxPoint x="208" y="416.27093023255816" as="sourcePoint" />
            <mxPoint x="560.1183814303638" y="247.172219150302" as="targetPoint" />
          </mxGeometry>
        </mxCell>
        <mxCell id="h_DhaQC7bqa9rS6yFAGx-16" value="REGIONAL CACHE LOCATION" style="rounded=1;whiteSpace=wrap;html=1;align=left;fontSize=17;" vertex="1" parent="h_DhaQC7bqa9rS6yFAGx-1">
          <mxGeometry x="20" y="30" width="110" height="60" as="geometry" />
        </mxCell>
        <mxCell id="h_DhaQC7bqa9rS6yFAGx-17" value="REGIONAL CACHE LOCATION" style="rounded=1;whiteSpace=wrap;html=1;align=left;fontSize=17;" vertex="1" parent="h_DhaQC7bqa9rS6yFAGx-1">
          <mxGeometry x="140" y="30" width="110" height="60" as="geometry" />
        </mxCell>
        <mxCell id="h_DhaQC7bqa9rS6yFAGx-18" value="REGIONAL CACHE LOCATION" style="rounded=1;whiteSpace=wrap;html=1;align=left;fontSize=17;" vertex="1" parent="h_DhaQC7bqa9rS6yFAGx-1">
          <mxGeometry x="258" y="30" width="110" height="60" as="geometry" />
        </mxCell>
        <mxCell id="h_DhaQC7bqa9rS6yFAGx-19" value="REGIONAL CACHE LOCATION" style="rounded=1;whiteSpace=wrap;html=1;align=left;fontSize=17;" vertex="1" parent="h_DhaQC7bqa9rS6yFAGx-1">
          <mxGeometry x="380" y="30" width="110" height="60" as="geometry" />
        </mxCell>
        <mxCell id="h_DhaQC7bqa9rS6yFAGx-20" value="REGIONAL CACHE LOCATION" style="rounded=1;whiteSpace=wrap;html=1;align=left;fontSize=17;" vertex="1" parent="h_DhaQC7bqa9rS6yFAGx-1">
          <mxGeometry x="390" y="40" width="110" height="60" as="geometry" />
        </mxCell>
        <mxCell id="h_DhaQC7bqa9rS6yFAGx-21" value="REGIONAL CACHE LOCATION" style="rounded=1;whiteSpace=wrap;html=1;align=left;fontSize=17;" vertex="1" parent="h_DhaQC7bqa9rS6yFAGx-1">
          <mxGeometry x="400" y="50" width="110" height="60" as="geometry" />
        </mxCell>
        <mxCell id="h_DhaQC7bqa9rS6yFAGx-22" value="REGIONAL CACHE LOCATION" style="rounded=1;whiteSpace=wrap;html=1;align=left;fontSize=17;" vertex="1" parent="h_DhaQC7bqa9rS6yFAGx-1">
          <mxGeometry x="410" y="60" width="110" height="60" as="geometry" />
        </mxCell>
        <mxCell id="h_DhaQC7bqa9rS6yFAGx-23" value="REGIONAL CACHE LOCATION" style="rounded=1;whiteSpace=wrap;html=1;align=left;fontSize=17;" vertex="1" parent="h_DhaQC7bqa9rS6yFAGx-1">
          <mxGeometry x="420" y="70" width="110" height="60" as="geometry" />
        </mxCell>
        <mxCell id="h_DhaQC7bqa9rS6yFAGx-24" value="REGIONAL CACHE LOCATION" style="rounded=1;whiteSpace=wrap;html=1;align=left;fontSize=17;" vertex="1" parent="h_DhaQC7bqa9rS6yFAGx-1">
          <mxGeometry x="430" y="80" width="110" height="60" as="geometry" />
        </mxCell>
        <mxCell id="h_DhaQC7bqa9rS6yFAGx-25" value="REGIONAL CACHE LOCATION" style="rounded=1;whiteSpace=wrap;html=1;align=left;fontSize=17;" vertex="1" parent="h_DhaQC7bqa9rS6yFAGx-1">
          <mxGeometry x="440" y="90" width="110" height="60" as="geometry" />
        </mxCell>
        <mxCell id="h_DhaQC7bqa9rS6yFAGx-26" value="REGIONAL CACHE LOCATION" style="rounded=1;whiteSpace=wrap;html=1;align=left;fontSize=17;" vertex="1" parent="h_DhaQC7bqa9rS6yFAGx-1">
          <mxGeometry x="1010" y="20" width="110" height="60" as="geometry" />
        </mxCell>
        <mxCell id="h_DhaQC7bqa9rS6yFAGx-27" value="&amp;gt;100 REGIONAL CACHE LOCATIONS" style="text;html=1;strokeColor=none;fillColor=none;align=center;verticalAlign=middle;whiteSpace=wrap;rounded=0;fontSize=17;" vertex="1" parent="h_DhaQC7bqa9rS6yFAGx-1">
          <mxGeometry x="990" y="110" width="40" height="20" as="geometry" />
        </mxCell>
        <mxCell id="h_DhaQC7bqa9rS6yFAGx-28" value="/images/mycat.jpg&lt;br&gt;/index.html&lt;br&gt;/standard.css&lt;br&gt;/localscript.js" style="text;html=1;strokeColor=none;fillColor=none;align=center;verticalAlign=middle;whiteSpace=wrap;rounded=0;fontSize=17;" vertex="1" parent="h_DhaQC7bqa9rS6yFAGx-1">
          <mxGeometry x="310" y="450" width="40" height="59" as="geometry" />
        </mxCell>
        <mxCell id="h_DhaQC7bqa9rS6yFAGx-29" value="/images/mycat.jpg&lt;br&gt;/index.html&lt;br&gt;/standard.css&lt;br&gt;/localscript.js" style="text;html=1;strokeColor=none;fillColor=none;align=center;verticalAlign=middle;whiteSpace=wrap;rounded=0;fontSize=17;" vertex="1" parent="h_DhaQC7bqa9rS6yFAGx-1">
          <mxGeometry x="30" y="100" width="40" height="59" as="geometry" />
        </mxCell>
        <mxCell id="h_DhaQC7bqa9rS6yFAGx-30" value="/images/mycat.jpg&lt;br&gt;/index.html&lt;br&gt;/standard.css&lt;br&gt;/localscript.js" style="text;html=1;strokeColor=none;fillColor=none;align=center;verticalAlign=middle;whiteSpace=wrap;rounded=0;fontSize=17;" vertex="1" parent="h_DhaQC7bqa9rS6yFAGx-1">
          <mxGeometry x="175" y="100" width="40" height="59" as="geometry" />
        </mxCell>
        <mxCell id="h_DhaQC7bqa9rS6yFAGx-31" value="/images/mycat.jpg&lt;br&gt;/index.html&lt;br&gt;/standard.css&lt;br&gt;/localscript.js" style="text;html=1;strokeColor=none;fillColor=none;align=center;verticalAlign=middle;whiteSpace=wrap;rounded=0;fontSize=17;" vertex="1" parent="h_DhaQC7bqa9rS6yFAGx-1">
          <mxGeometry x="1100" y="91" width="40" height="59" as="geometry" />
        </mxCell>
        <mxCell id="h_DhaQC7bqa9rS6yFAGx-37" value="" style="edgeStyle=orthogonalEdgeStyle;rounded=0;orthogonalLoop=1;jettySize=auto;html=1;fontSize=17;" edge="1" parent="h_DhaQC7bqa9rS6yFAGx-1" source="h_DhaQC7bqa9rS6yFAGx-32" target="h_DhaQC7bqa9rS6yFAGx-3">
          <mxGeometry relative="1" as="geometry" />
        </mxCell>
        <mxCell id="h_DhaQC7bqa9rS6yFAGx-32" value="elb1284624.amazonaws.com" style="text;html=1;strokeColor=none;fillColor=none;align=center;verticalAlign=middle;whiteSpace=wrap;rounded=0;fontSize=17;" vertex="1" parent="h_DhaQC7bqa9rS6yFAGx-1">
          <mxGeometry x="135" y="376" width="40" height="20" as="geometry" />
        </mxCell>
        <mxCell id="h_DhaQC7bqa9rS6yFAGx-35" value="" style="edgeStyle=orthogonalEdgeStyle;rounded=0;orthogonalLoop=1;jettySize=auto;html=1;fontSize=17;" edge="1" parent="h_DhaQC7bqa9rS6yFAGx-1" source="h_DhaQC7bqa9rS6yFAGx-34" target="h_DhaQC7bqa9rS6yFAGx-10">
          <mxGeometry relative="1" as="geometry" />
        </mxCell>
        <mxCell id="h_DhaQC7bqa9rS6yFAGx-38" value="" style="edgeStyle=orthogonalEdgeStyle;rounded=0;orthogonalLoop=1;jettySize=auto;html=1;fontSize=17;" edge="1" parent="h_DhaQC7bqa9rS6yFAGx-1" source="h_DhaQC7bqa9rS6yFAGx-34" target="h_DhaQC7bqa9rS6yFAGx-4">
          <mxGeometry relative="1" as="geometry" />
        </mxCell>
        <mxCell id="h_DhaQC7bqa9rS6yFAGx-34" value="elb888855533.amazonaws.com" style="text;html=1;strokeColor=none;fillColor=none;align=center;verticalAlign=middle;whiteSpace=wrap;rounded=0;fontSize=17;" vertex="1" parent="h_DhaQC7bqa9rS6yFAGx-1">
          <mxGeometry x="840" y="370" width="40" height="20" as="geometry" />
        </mxCell>
        <mxCell id="h_DhaQC7bqa9rS6yFAGx-36" value="&lt;b&gt;RECORDSET&lt;br&gt;&lt;/b&gt;www.&lt;b&gt;subdomain&lt;/b&gt;.example.com&lt;br&gt;ALIAS&amp;nbsp;&lt;span style=&quot;text-align: center&quot;&gt;cf123456.cloudfront.net&lt;/span&gt;" style="text;html=1;strokeColor=none;fillColor=none;align=left;verticalAlign=middle;whiteSpace=wrap;rounded=0;fontSize=17;" vertex="1" parent="h_DhaQC7bqa9rS6yFAGx-1">
          <mxGeometry x="690" y="220" width="270" height="20" as="geometry" />
        </mxCell>
        <mxCell id="h_DhaQC7bqa9rS6yFAGx-39" value="cf123456.cloudfront.net" style="text;html=1;strokeColor=none;fillColor=none;align=center;verticalAlign=middle;whiteSpace=wrap;rounded=0;fontSize=17;" vertex="1" parent="h_DhaQC7bqa9rS6yFAGx-1">
          <mxGeometry x="300" y="270" width="40" height="20" as="geometry" />
        </mxCell>
        <mxCell id="h_DhaQC7bqa9rS6yFAGx-42" value="" style="endArrow=classic;startArrow=classic;html=1;fontSize=17;exitX=0.625;exitY=-0.45;exitDx=0;exitDy=0;exitPerimeter=0;" edge="1" parent="h_DhaQC7bqa9rS6yFAGx-1" source="h_DhaQC7bqa9rS6yFAGx-32">
          <mxGeometry width="50" height="50" relative="1" as="geometry">
            <mxPoint x="180" y="350" as="sourcePoint" />
            <mxPoint x="230" y="300" as="targetPoint" />
          </mxGeometry>
        </mxCell>
        <mxCell id="h_DhaQC7bqa9rS6yFAGx-43" value="CF DISTRIBUTION" style="rounded=1;whiteSpace=wrap;html=1;align=left;fontSize=17;" vertex="1" parent="h_DhaQC7bqa9rS6yFAGx-1">
          <mxGeometry x="658" y="300" width="120" height="60" as="geometry" />
        </mxCell>
        <mxCell id="h_DhaQC7bqa9rS6yFAGx-44" value="" style="endArrow=none;html=1;fontSize=17;exitX=0.255;exitY=-0.026;exitDx=0;exitDy=0;exitPerimeter=0;" edge="1" parent="h_DhaQC7bqa9rS6yFAGx-1" source="h_DhaQC7bqa9rS6yFAGx-4" target="h_DhaQC7bqa9rS6yFAGx-43">
          <mxGeometry width="50" height="50" relative="1" as="geometry">
            <mxPoint x="752.1999999999998" y="401.1600000000001" as="sourcePoint" />
            <mxPoint x="633.1607784084326" y="267" as="targetPoint" />
          </mxGeometry>
        </mxCell>
      </root>
    </mxGraphModel>
  </diagram>
</mxfile>
